<svg xmlns="http://www.w3.org/2000/svg" width="128" height="128" viewBox="0 0 128 128">
  <defs>
    <linearGradient id="g" x1="0" x2="1" y1="0" y2="1">
      <stop offset="0" stop-color="#60a5fa"/>
      <stop offset="0.5" stop-color="#a78bfa"/>
      <stop offset="1" stop-color="#22c55e"/>
    </linearGradient>
    <filter id="s" x="-20%" y="-20%" width="140%" height="140%">
      <feDropShadow dx="0" dy="10" stdDeviation="10" flood-color="#000" flood-opacity="0.35"/>
    </filter>
  </defs>
  <rect x="10" y="10" width="108" height="108" rx="28" fill="url(#g)" filter="url(#s)"/>
  <g fill="rgba(255,255,255,0.92)">
    <path d="M44 79c0 9 7.5 16 20 16s20-7 20-16c0-8-6-13-14-15V52c0-3-2-5-5-5h-2c-3 0-5 2-5 5v12c-8 2-14 7-14 15zm18.5 8.5c-5.5 0-9-2.5-9-6.5 0-4.3 4.6-6 9-6s9 1.7 9 6c0 4-3.5 7-9 7z"/>
    <path d="M81.5 42c0 3.6-2.9 6.5-6.5 6.5S68.5 45.6 68.5 42 71.4 35.5 75 35.5 81.5 38.4 81.5 42z"/>
  </g>
  <text x="64" y="116" text-anchor="middle" font-family="system-ui,Segoe UI,Arial" font-size="14" font-weight="900" fill="rgba(255,255,255,0.92)">DIO</text>
</svg>
